<svg width="64" height="64" viewBox="0 0 64 64" fill="none" xmlns="http://www.w3.org/2000/svg">
<rect width="64" height="64" rx="4" fill="#F1F5F9"/>
<path d="M40.4697 27.4697C40.7626 27.1768 41.2374 27.1768 41.5303 27.4697C41.7966 27.7359 41.8208 28.1526 41.6029 28.4462L41.5303 28.5303L35.9445 34.1161C34.9153 35.1453 33.2733 35.1882 32.1931 34.2448L32.0555 34.1161L29.8839 31.9445C29.4283 31.4889 28.7085 31.4586 28.2176 31.8534L28.1161 31.9445L23.5303 36.5303C23.2374 36.8232 22.7626 36.8232 22.4697 36.5303C22.2034 36.2641 22.1792 35.8474 22.3971 35.5538L22.4697 35.4697L27.0555 30.8839C28.0847 29.8547 29.7267 29.8118 30.8069 30.7552L30.9445 30.8839L33.1161 33.0555C33.5717 33.5111 34.2915 33.5414 34.7824 33.1466L34.8839 33.0555L40.4697 27.4697Z" fill="#94A3B8"/>
<path d="M33.9997 27.1992C34.3734 27.199 34.6874 27.455 34.7755 27.8019L34.7935 27.8985L34.8002 28.0003C34.7996 28.4419 34.4413 28.7995 33.9997 28.7992C33.5581 28.7989 33.2002 28.4408 33.2002 27.9992C33.2002 27.5576 33.5581 27.1995 33.9997 27.1992Z" fill="#94A3B8"/>
<path fill-rule="evenodd" clip-rule="evenodd" d="M28 22.25H36C39.1756 22.25 41.75 24.8244 41.75 28V36C41.75 39.1756 39.1756 41.75 36 41.75H28C24.8244 41.75 22.25 39.1756 22.25 36V28C22.25 24.8244 24.8244 22.25 28 22.25ZM36 23.75H28C25.6528 23.75 23.75 25.6528 23.75 28V36C23.75 38.3472 25.6528 40.25 28 40.25H36C38.3472 40.25 40.25 38.3472 40.25 36V28C40.25 25.6528 38.3472 23.75 36 23.75Z" fill="#94A3B8"/>
</svg>
